<svg xmlns="http://www.w3.org/2000/svg" width="640" height="420" role="img">
<title>Held-out residuals vs constant-flow baseline (synthetic)</title>
<rect x="0" y="0" width="640" height="420" fill="white"/>
<text x="320" y="16" font-size="12" text-anchor="middle">Held-out residuals vs constant-flow baseline (synthetic)</text>
<rect x="64" y="28" width="560" height="340" fill="none" stroke="black"/>
<text x="344" y="412" font-size="11" text-anchor="middle">time_s (s)</text>
<text x="14" y="198" font-size="11" text-anchor="middle" transform="rotate(-90 14,198)">residual_g (g)</text>
<line x1="64.0" y1="28" x2="64.0" y2="368" stroke="#ddd"/>
<text x="64.0" y="384" font-size="10" text-anchor="middle">-1.5</text>
<line x1="64" y1="368.0" x2="624" y2="368.0" stroke="#ddd"/>
<text x="58" y="371.0" font-size="10" text-anchor="end">-7.1e-16</text>
<line x1="250.7" y1="28" x2="250.7" y2="368" stroke="#ddd"/>
<text x="250.7" y="384" font-size="10" text-anchor="middle">9.5</text>
<line x1="64" y1="254.7" x2="624" y2="254.7" stroke="#ddd"/>
<text x="58" y="257.7" font-size="10" text-anchor="end">2.1e-15</text>
<line x1="437.3" y1="28" x2="437.3" y2="368" stroke="#ddd"/>
<text x="437.3" y="384" font-size="10" text-anchor="middle">20</text>
<line x1="64" y1="141.3" x2="624" y2="141.3" stroke="#ddd"/>
<text x="58" y="144.3" font-size="10" text-anchor="end">5e-15</text>
<line x1="624.0" y1="28" x2="624.0" y2="368" stroke="#ddd"/>
<text x="624.0" y="384" font-size="10" text-anchor="middle">32</text>
<line x1="64" y1="28.0" x2="624" y2="28.0" stroke="#ddd"/>
<text x="58" y="31.0" font-size="10" text-anchor="end">7.8e-15</text>
<polyline points="89.5,339.7 101.3,339.7 121.7,339.7 142.1,322.0 174.3,339.7 213.3,339.7 243.9,339.7 272.7,339.7 301.6,339.7 347.4,339.7 393.2,198.0 430.5,339.7 476.4,339.7 513.7,339.7 554.4,56.3 598.5,339.7" fill="none" stroke="#1f77b4" stroke-width="2"/>
<text x="620" y="44" font-size="11" text-anchor="end" fill="#1f77b4">irregular residuals (observed - simulated) [observed]</text>
</svg>
