<svg xmlns="http://www.w3.org/2000/svg" width="640" height="420" role="img">
<title>Synthetic shots: derived flow, 2 s window (illustrative)</title>
<rect x="0" y="0" width="640" height="420" fill="white"/>
<text x="320" y="16" font-size="12" text-anchor="middle">Synthetic shots: derived flow, 2 s window (illustrative)</text>
<rect x="64" y="28" width="560" height="340" fill="none" stroke="black"/>
<text x="344" y="412" font-size="11" text-anchor="middle">time_s (s)</text>
<text x="14" y="198" font-size="11" text-anchor="middle" transform="rotate(-90 14,198)">derived_flow_g_s (g/s)</text>
<line x1="64.0" y1="28" x2="64.0" y2="368" stroke="#ddd"/>
<text x="64.0" y="384" font-size="10" text-anchor="middle">-1.5</text>
<line x1="64" y1="368.0" x2="624" y2="368.0" stroke="#ddd"/>
<text x="58" y="371.0" font-size="10" text-anchor="end">1.2</text>
<line x1="250.7" y1="28" x2="250.7" y2="368" stroke="#ddd"/>
<text x="250.7" y="384" font-size="10" text-anchor="middle">9.5</text>
<line x1="64" y1="254.7" x2="624" y2="254.7" stroke="#ddd"/>
<text x="58" y="257.7" font-size="10" text-anchor="end">1.2</text>
<line x1="437.3" y1="28" x2="437.3" y2="368" stroke="#ddd"/>
<text x="437.3" y="384" font-size="10" text-anchor="middle">20</text>
<line x1="64" y1="141.3" x2="624" y2="141.3" stroke="#ddd"/>
<text x="58" y="144.3" font-size="10" text-anchor="end">1.2</text>
<line x1="624.0" y1="28" x2="624.0" y2="368" stroke="#ddd"/>
<text x="624.0" y="384" font-size="10" text-anchor="middle">32</text>
<line x1="64" y1="28.0" x2="624" y2="28.0" stroke="#ddd"/>
<text x="58" y="31.0" font-size="10" text-anchor="end">1.2</text>
<polyline points="89.5,240.5 106.4,240.5 123.4,226.3 140.4,240.5 157.3,240.5 174.3,226.3 191.3,226.3 208.2,254.7 225.2,226.3 242.2,226.3 259.2,283.0 276.1,226.3 293.1,226.3 310.1,226.3 327.0,226.3 344.0,283.0 361.0,283.0 377.9,169.7 394.9,169.7 411.9,283.0 428.8,283.0 445.8,283.0 462.8,169.7 479.8,169.7 496.7,283.0 513.7,283.0 530.7,283.0 547.6,169.7 564.6,283.0 581.6,283.0 598.5,56.3" fill="none" stroke="#1f77b4" stroke-width="2"/>
<text x="620" y="44" font-size="11" text-anchor="end" fill="#1f77b4">linear derived flow (observed) [observed]</text>
<polyline points="89.5,226.3 101.3,226.3 121.7,240.5 142.1,226.3 174.3,240.5 213.3,240.5 243.9,226.3 272.7,240.5 301.6,226.3 347.4,254.7 393.2,155.5 430.5,311.3 476.4,240.5 513.7,183.8 554.4,127.2 598.5,339.7" fill="none" stroke="#d62728" stroke-width="2"/>
<text x="620" y="60" font-size="11" text-anchor="end" fill="#d62728">irregular derived flow (observed) [observed]</text>
</svg>
